<?xml version="1.0" encoding="UTF-8"?>
<svg width="30px" height="33px" viewBox="0 0 30 33" version="1.1" xmlns="http://www.w3.org/2000/svg" xmlns:xlink="http://www.w3.org/1999/xlink">
    <title>7AAA1EC9-0514-438C-AD43-A67F0CABC3DE@1.5x</title>
    <g id="Current-Account-Onboarding---DB" stroke="none" stroke-width="1" fill="none" fill-rule="evenodd">
        <g id="2_ca_onboard_stakeholders" transform="translate(-498.000000, -231.000000)" fill="#D6D6D6" fill-rule="nonzero">
            <path d="M514.50566,250.058824 C517.872103,250.058824 521.043585,251.359399 523.435935,253.721039 C525.816569,256.0711 527.127636,259.173175 527.127636,262.456049 C527.127636,262.977362 526.692922,263.4 526.156715,263.4 L526.156715,263.4 L498.970921,263.4 C498.434714,263.4 498,262.977362 498,262.456049 C498,259.173175 499.311067,256.0711 501.691701,253.721039 C504.084051,251.359399 507.255598,250.058824 510.621976,250.058824 L510.621976,250.058824 Z M512.563818,231 C517.382112,231 521.302109,234.847405 521.302109,239.576471 C521.302109,244.305536 517.382112,248.152941 512.563818,248.152941 C507.745524,248.152941 503.825527,244.305536 503.825527,239.576471 C503.825527,234.847405 507.745524,231 512.563818,231 Z" id="user_img_icon"></path>
        </g>
    </g>
</svg>